<?xml version="1.0" standalone="no"?>
<!DOCTYPE svg PUBLIC "-//W3C//DTD SVG 20010904//EN"
 "http://www.w3.org/TR/2001/REC-SVG-20010904/DTD/svg10.dtd">
<svg version="1.0" xmlns="http://www.w3.org/2000/svg"
 width="768.000000pt" height="768.000000pt" viewBox="0 0 768.000000 768.000000"
 preserveAspectRatio="xMidYMid meet">
<metadata>
Created by potrace 1.10, written by Peter Selinger 2001-2011
</metadata>
<g transform="translate(0.000000,768.000000) scale(0.100000,-0.100000)"
fill="#000000" stroke="#000000">
<path d="M3180 7010 c-63 -5 -131 -13 -150 -19 -40 -11 -104 -27 -170 -43 -25
-6 -49 -14 -55 -18 -5 -4 -26 -11 -45 -15 -19 -4 -41 -11 -50 -16 -37 -20
-169 -79 -176 -79 -4 0 -21 -11 -38 -24 -17 -13 -41 -26 -53 -30 -13 -4 -23
-11 -23 -16 0 -5 -10 -12 -22 -16 -12 -3 -26 -10 -32 -15 -6 -5 -22 -19 -36
-30 -14 -12 -41 -32 -60 -44 -71 -45 -278 -261 -340 -355 -8 -12 -21 -28 -27
-36 -7 -7 -13 -15 -13 -18 0 -3 -13 -25 -30 -49 -38 -57 -83 -149 -139 -282
-40 -95 -81 -247 -103 -385 -13 -85 -13 -405 1 -495 22 -146 60 -291 102 -390
40 -95 54 -128 81 -180 26 -51 112 -190 128 -205 3 -3 19 -25 35 -49 39 -58
258 -277 315 -316 25 -16 47 -32 50 -35 11 -11 149 -100 164 -106 26 -10 18
-34 -14 -41 -17 -3 -33 -10 -36 -14 -3 -5 -13 -9 -23 -9 -37 0 -288 -87 -416
-145 -103 -46 -334 -164 -376 -192 -28 -18 -52 -33 -54 -33 -5 0 -225 -150
-235 -160 -3 -3 -39 -32 -80 -65 -69 -55 -245 -209 -280 -246 -74 -77 -152
-163 -187 -204 -23 -27 -51 -61 -62 -74 -12 -13 -21 -27 -21 -30 0 -3 -11 -18
-23 -32 -98 -105 -314 -469 -407 -684 -12 -27 -28 -64 -36 -82 -8 -17 -14 -35
-14 -41 0 -5 -7 -23 -15 -38 -8 -16 -15 -37 -15 -46 0 -9 -4 -19 -9 -22 -5 -3
-12 -23 -16 -43 -4 -21 -10 -42 -14 -48 -5 -5 -13 -30 -20 -55 -7 -25 -19 -70
-27 -100 -38 -137 -72 -326 -84 -465 -6 -60 -15 -135 -20 -166 -17 -94 -13
-260 8 -301 27 -57 66 -82 127 -83 63 0 99 18 127 63 17 28 22 59 30 181 16
287 38 439 97 681 7 25 16 56 20 70 5 14 19 59 31 100 13 41 26 79 31 85 5 5
9 16 9 25 0 8 7 28 15 44 8 15 15 32 15 36 0 5 16 43 36 87 54 119 68 148 76
153 3 3 10 18 13 33 4 15 11 27 16 27 5 0 9 5 9 11 0 14 87 161 148 249 45 66
161 221 171 230 3 3 31 34 61 70 82 98 250 262 351 345 167 137 462 335 498
335 6 0 11 4 11 9 0 5 12 12 26 15 14 4 43 18 65 31 21 14 41 25 45 25 3 0 35
13 71 30 35 16 75 33 89 36 13 3 27 10 30 15 3 5 13 9 22 9 9 1 35 9 57 20 22
11 48 19 58 20 9 0 25 4 35 9 9 6 51 19 92 31 41 11 91 25 110 31 70 19 193
42 385 70 104 15 594 15 705 0 170 -23 316 -50 390 -70 19 -6 62 -17 95 -26
77 -22 175 -54 197 -66 10 -5 23 -9 28 -9 10 0 41 -12 125 -50 11 -5 43 -18
70 -30 176 -75 428 -226 605 -364 36 -28 67 -53 70 -56 3 -3 32 -28 65 -56 33
-28 85 -75 115 -103 58 -55 116 -91 148 -91 28 0 94 29 114 51 10 10 23 38 30
63 23 85 -3 125 -187 287 -27 24 -56 50 -63 56 -7 7 -41 34 -75 60 -34 26 -67
52 -73 58 -6 5 -20 16 -30 23 -11 6 -58 39 -106 72 -48 33 -92 60 -97 60 -5 0
-16 6 -23 13 -28 28 -289 165 -413 217 -11 5 -40 18 -65 28 -25 11 -67 27 -95
37 -27 9 -59 21 -70 25 -11 5 -54 18 -95 30 -140 41 -170 52 -170 64 0 6 21
23 48 39 63 37 84 50 98 62 6 6 22 17 34 25 125 84 316 275 400 400 8 12 21
28 28 36 6 7 12 15 12 18 0 3 13 24 29 48 16 24 42 70 59 103 27 52 41 85 81
180 42 99 80 245 102 390 13 87 13 420 1 495 -24 137 -35 186 -43 195 -5 5 -9
17 -9 27 0 35 -37 138 -94 260 -20 42 -36 79 -36 82 0 9 -62 109 -77 124 -7 7
-13 18 -13 23 0 5 -5 15 -10 22 -6 7 -20 23 -31 37 -12 14 -32 41 -44 60 -48
74 -260 277 -355 340 -12 8 -28 20 -34 25 -7 6 -21 15 -31 22 -101 62 -142 83
-215 116 -47 21 -93 43 -102 48 -10 5 -23 9 -29 9 -6 0 -25 7 -42 15 -32 14
-65 24 -187 51 -148 34 -363 47 -550 34z m340 -300 c223 -33 353 -77 579 -199
105 -56 319 -251 407 -372 78 -105 78 -105 147 -244 40 -81 56 -121 96 -247
64 -201 64 -554 0 -756 -35 -111 -76 -214 -107 -272 -19 -36 -42 -78 -51 -95
-8 -16 -18 -34 -23 -40 -4 -5 -31 -41 -60 -80 -100 -136 -291 -308 -418 -380
-253 -141 -480 -204 -745 -204 -220 -1 -470 61 -650 159 -33 18 -69 38 -80 44
-172 93 -410 330 -510 506 -81 144 -153 329 -176 452 -30 166 -37 337 -19 458
15 105 30 185 39 205 4 11 18 52 30 90 26 81 109 254 153 319 98 146 265 318
391 404 43 28 82 52 87 52 6 0 10 4 10 8 0 4 44 28 98 54 87 41 134 59 254 97
38 12 116 28 203 41 68 10 278 10 345 0z"/>
<path d="M6180 3168 c-42 -12 -86 -58 -94 -100 -3 -17 -6 -284 -6 -593 0 -504
-2 -563 -16 -569 -9 -3 -270 -6 -580 -6 -503 0 -568 -2 -597 -16 -39 -21 -50
-32 -71 -71 -28 -56 -14 -129 34 -175 37 -35 86 -38 650 -38 305 0 560 -4 567
-8 9 -6 13 -146 15 -592 l3 -585 22 -31 c60 -84 191 -82 250 4 17 25 18 66 21
612 2 446 6 586 15 592 7 4 262 8 567 8 365 0 568 4 594 11 45 13 71 34 85 72
6 15 17 27 26 27 11 0 15 11 15 40 0 29 -4 40 -15 40 -9 0 -20 12 -25 26 -13
32 -27 47 -67 68 -29 14 -95 16 -600 16 -312 0 -573 4 -580 8 -9 6 -13 146
-15 592 -3 640 0 611 -63 650 -39 24 -92 31 -135 18z"/>
</g>
</svg>
